<svg width="158" height="78" xmlns="http://www.w3.org/2000/svg" xmlns:xlink="http://www.w3.org/1999/xlink"><defs><path id="a" d="M.054.345h33v28.949h-33z"/></defs><g fill="none" fill-rule="evenodd"><g fill-rule="nonzero"><path d="M11.884 53.29c1.208 0 2.088-.34 2.64-1.022a3.642 3.642 0 00.827-2.36c0-.857-.3-1.564-.903-2.122-.602-.558-1.336-.837-2.202-.837-.461 0-.867.072-1.22.217a2.948 2.948 0 00-.625.376l.402-2.624h4.014v-1.147H9.913l-.719 5.083 1.029.059c.206-.281.456-.501.748-.66.292-.157.643-.237 1.051-.237.563 0 1.045.18 1.447.541.402.36.603.87.603 1.53 0 .544-.169 1.04-.507 1.49-.339.447-.86.671-1.562.671-.37 0-.695-.065-.976-.197-.55-.26-.864-.728-.943-1.404H8.852c.07.896.4 1.56.992 1.994.59.433 1.27.649 2.04.649zm12.274.046c1.033 0 1.939-.23 2.719-.692.78-.461 1.17-1.228 1.17-2.3 0-.862-.308-1.519-.923-1.972-.356-.259-.861-.463-1.516-.613l-1.358-.31c-.914-.21-1.5-.386-1.76-.527-.395-.22-.593-.567-.593-1.041 0-.43.169-.809.507-1.134.339-.325.895-.488 1.668-.488.958 0 1.637.253 2.037.758.215.277.356.675.422 1.193h1.233c0-1.076-.355-1.86-1.065-2.35s-1.572-.735-2.587-.735c-1.103 0-1.956.28-2.558.838-.602.558-.903 1.272-.903 2.142 0 .804.308 1.408.923 1.813.356.233.962.446 1.82.639l1.31.297c.713.162 1.236.353 1.57.573.33.224.494.6.494 1.127 0 .703-.391 1.191-1.173 1.464a4.09 4.09 0 01-1.345.21c-1.099 0-1.865-.32-2.3-.962-.229-.343-.359-.789-.39-1.338h-1.232c-.013 1.046.32 1.874 1.002 2.485.681.615 1.624.923 2.828.923zm7.053-.171c.171 0 .33-.01.478-.027.147-.017.289-.046.425-.085v-.936a3.542 3.542 0 01-.415.02c-.216 0-.37-.025-.462-.073-.167-.084-.25-.248-.25-.495v-4.607h1.127v-.97h-1.127v-1.97h-1.2v1.97h-.956v.97h.956v4.673c0 .453.1.821.297 1.105.198.283.573.425 1.127.425zm3.988.125c.545 0 1.044-.117 1.496-.35.453-.232.8-.507 1.042-.823.04.28.108.498.204.652.185.29.481.435.89.435.167 0 .299-.006.396-.02.096-.013.237-.046.422-.098v-.877a2.85 2.85 0 01-.211.03c-.066.006-.126.01-.178.01-.163 0-.27-.038-.32-.113a.52.52 0 01-.076-.296v-4.067c0-.668-.257-1.16-.771-1.477-.519-.316-1.193-.475-2.024-.475-.716 0-1.346.17-1.888.511-.543.34-.825.946-.847 1.816h1.107c.044-.364.138-.64.283-.824.26-.334.7-.5 1.319-.5.536 0 .948.09 1.236.273.288.182.432.476.432.88 0 .198-.027.35-.08.455-.092.193-.274.307-.547.343l-1.892.237c-.663.083-1.2.305-1.608.666-.409.36-.613.868-.613 1.522 0 .598.208 1.096.623 1.493.415.398.95.597 1.605.597zm.277-1.009a1.39 1.39 0 01-.89-.296c-.25-.198-.376-.468-.376-.811 0-.453.183-.782.547-.989.216-.123.539-.213.97-.27l.718-.092c.22-.027.444-.07.672-.132a2.03 2.03 0 00.56-.23v.955c0 .73-.329 1.255-.988 1.575-.391.194-.796.29-1.213.29zm6.552.772v-4.06c0-.502.16-.945.481-1.33.321-.384.78-.576 1.378-.576a1.772 1.772 0 01.389.033v-1.252a15.748 15.748 0 00-.27-.027l-.048-.003a1.76 1.76 0 00-1.31.508c-.36.34-.587.629-.68.866v-1.22h-1.126v7.06h1.186zm11.094.25c1.305 0 2.342-.415 3.111-1.246.642-.69 1.02-1.544 1.134-2.564h-1.279c-.131.637-.331 1.151-.6 1.543-.505.742-1.24 1.114-2.208 1.114-1.05 0-1.84-.353-2.37-1.058-.529-.706-.794-1.625-.794-2.76 0-1.383.294-2.41.88-3.08.587-.67 1.357-1.006 2.31-1.006.783 0 1.39.182 1.823.547.433.365.722.86.867 1.483h1.279c-.075-.822-.45-1.555-1.127-2.201-.677-.646-1.628-.97-2.854-.97-1.437 0-2.565.497-3.382 1.49-.756.914-1.134 2.086-1.134 3.514 0 1.88.503 3.272 1.51 4.172.764.682 1.71 1.022 2.834 1.022zm8.01-.06c.645 0 1.194-.184 1.647-.553.229-.184.42-.41.574-.679l-.014 1.042h1.121v-7.06h-1.186v3.467c0 .69-.082 1.233-.244 1.628-.3.739-.862 1.108-1.688 1.108-.576 0-.969-.211-1.18-.633-.114-.229-.171-.523-.171-.883v-4.687h-1.213v4.799c0 .602.099 1.083.297 1.443.364.673 1.05 1.009 2.056 1.009zm7.679.08c.975 0 1.701-.229 2.178-.686.477-.457.715-1 .715-1.628 0-.65-.23-1.127-.692-1.43-.29-.194-.861-.394-1.714-.6l-.784-.191c-.343-.084-.602-.18-.778-.29-.303-.185-.455-.431-.455-.739a.81.81 0 01.346-.679c.231-.17.57-.257 1.019-.257.672 0 1.145.156 1.417.468.167.22.262.464.284.732h1.12a2.031 2.031 0 00-.428-1.279c-.47-.624-1.237-.936-2.3-.936-.814 0-1.461.207-1.942.62-.481.413-.722.953-.722 1.621 0 .567.255 1.011.765 1.332.285.185.73.352 1.331.501l.943.237c.505.128.844.24 1.015.336a.758.758 0 01.402.693c0 .4-.167.695-.5.886a2.303 2.303 0 01-1.161.287c-.738 0-1.257-.191-1.556-.574-.162-.21-.261-.514-.296-.91h-1.14c.03.704.264 1.294.701 1.77.438.477 1.181.716 2.232.716zm5.912-.158c.172 0 .331-.01.478-.027.148-.017.29-.046.426-.085v-.936a3.542 3.542 0 01-.416.02c-.215 0-.369-.025-.461-.073-.167-.084-.25-.248-.25-.495v-4.607h1.127v-.97h-1.128v-1.97h-1.2v1.97h-.955v.97h.956v4.673c0 .453.099.821.296 1.105.198.283.574.425 1.127.425zm4.78.145c1.164 0 2.023-.372 2.577-1.114.554-.743.83-1.683.83-2.822 0-1.177-.314-2.07-.942-2.676-.629-.606-1.398-.91-2.307-.91-1.015 0-1.824.352-2.426 1.055-.602.703-.903 1.648-.903 2.835 0 1.107.286 1.99.857 2.646.571.657 1.342.986 2.314.986zm.112-1.022c-.717 0-1.24-.25-1.57-.751-.329-.501-.494-1.128-.494-1.88 0-.781.165-1.45.495-2.003.33-.554.857-.83 1.582-.83.817 0 1.393.325 1.727.975.21.413.316.95.316 1.608a4.45 4.45 0 01-.438 1.988c-.292.595-.832.893-1.618.893zm5.893.765v-3.745c0-.91.183-1.538.55-1.885.367-.347.775-.52 1.223-.52.492 0 .828.164 1.008.494.115.22.172.569.172 1.048v4.608h1.206v-4.107c0-.73.168-1.25.504-1.562a1.708 1.708 0 011.203-.468c.339 0 .625.088.86.263.236.176.353.5.353.97v4.904h1.233v-4.7c0-.624-.092-1.12-.277-1.49-.343-.686-.989-1.028-1.938-1.028-.444 0-.844.09-1.2.273a2.565 2.565 0 00-.93.84c-.157-.307-.333-.54-.526-.698-.343-.277-.796-.415-1.358-.415a2.3 2.3 0 00-1.332.402c-.228.158-.483.41-.765.758v-1.002h-1.173v7.06h1.187zm12.814.25c.36 0 .683-.035.97-.105.53-.123.977-.36 1.337-.712.216-.202.41-.463.584-.781.173-.319.275-.608.306-.867h-1.167a2.067 2.067 0 01-.448.824c-.369.408-.863.613-1.483.613-.664 0-1.154-.217-1.47-.65-.316-.432-.486-1.007-.508-1.723h5.175c0-.712-.035-1.23-.105-1.556a3.15 3.15 0 00-.475-1.246c-.246-.373-.604-.678-1.075-.913a3.22 3.22 0 00-1.456-.352c-.993 0-1.798.353-2.413 1.06-.615.708-.923 1.63-.923 2.763 0 1.151.306 2.047.916 2.686.611.64 1.356.96 2.235.96zm2.077-4.344h-3.923c.022-.606.218-1.106.587-1.5.37-.393.826-.59 1.371-.59.76 0 1.303.286 1.628.857.176.308.288.719.337 1.233zm3.895 4.094v-4.06c0-.502.16-.945.481-1.33.321-.384.78-.576 1.378-.576a1.772 1.772 0 01.389.033v-1.252a15.748 15.748 0 00-.27-.027l-.048-.003a1.76 1.76 0 00-1.31.508c-.36.34-.587.629-.68.866v-1.22h-1.126v7.06h1.186zm8.655 0V48.9h2.986c.537 0 .93.06 1.18.178.44.215.675.64.706 1.272l.079 1.615a6.2 6.2 0 00.066.765 1.2 1.2 0 00.105.323h1.609v-.218c-.203-.088-.343-.286-.422-.593-.049-.18-.08-.455-.093-.824l-.046-1.299c-.022-.562-.128-.969-.32-1.22-.19-.25-.475-.452-.853-.606.43-.224.766-.52 1.005-.89.24-.369.36-.843.36-1.423 0-1.112-.455-1.875-1.365-2.288-.48-.215-1.088-.323-1.826-.323h-4.482v9.684h1.311zm3.033-5.247h-3.033v-3.31h3.204c.448 0 .806.066 1.074.198.501.25.752.72.752 1.41 0 .642-.18 1.086-.537 1.332-.359.247-.845.37-1.46.37zm6.987 5.484c.545 0 1.044-.117 1.496-.35.453-.232.8-.507 1.042-.823.04.28.107.498.204.652.185.29.481.435.89.435.167 0 .299-.006.395-.02.097-.013.238-.046.422-.098v-.877a2.85 2.85 0 01-.21.03 2.05 2.05 0 01-.179.01c-.162 0-.269-.038-.32-.113a.52.52 0 01-.075-.296v-4.067c0-.668-.257-1.16-.771-1.477-.519-.316-1.193-.475-2.024-.475-.716 0-1.346.17-1.889.511-.542.34-.825.946-.847 1.816h1.108c.044-.364.138-.64.283-.824.26-.334.699-.5 1.319-.5.536 0 .948.09 1.236.273.287.182.431.476.431.88 0 .198-.026.35-.079.455-.092.193-.274.307-.547.343l-1.892.237c-.663.083-1.2.305-1.608.666-.409.36-.613.868-.613 1.522 0 .598.207 1.096.623 1.493.415.398.95.597 1.605.597zm.277-1.009a1.39 1.39 0 01-.89-.296c-.25-.198-.376-.468-.376-.811 0-.453.182-.782.547-.989.216-.123.539-.213.97-.27l.718-.092c.22-.027.444-.07.672-.132a2.03 2.03 0 00.56-.23v.955c0 .73-.33 1.255-.988 1.575-.392.194-.796.29-1.213.29zm6.994.884c.171 0 .33-.01.477-.027.148-.017.29-.046.426-.085v-.936a3.542 3.542 0 01-.416.02c-.215 0-.369-.025-.461-.073-.167-.084-.25-.248-.25-.495v-4.607h1.127v-.97h-1.128v-1.97h-1.2v1.97h-.955v.97h.956v4.673c0 .453.099.821.296 1.105.198.283.574.425 1.128.425zm3.295-8.451v-1.345h-1.206v1.345h1.206zm0 8.339v-7.027h-1.206v7.027h1.206zm2.98 0v-3.698c0-.462.03-.817.089-1.065.06-.248.188-.489.386-.722a1.78 1.78 0 01.857-.58c.18-.057.41-.086.692-.086.553 0 .936.22 1.147.66.127.263.19.61.19 1.041v4.45h1.207v-4.529c0-.712-.097-1.259-.29-1.641-.352-.699-1.028-1.048-2.03-1.048-.457 0-.873.09-1.246.27-.374.18-.727.477-1.061.89v-1.002h-1.128v7.06h1.187zm8.86 2.986c1.366 0 2.295-.48 2.788-1.437.263-.519.395-1.226.395-2.123v-6.42h-1.094v.89a3.257 3.257 0 00-.686-.673c-.413-.272-.896-.408-1.45-.408-.817 0-1.515.331-2.093.995-.578.664-.867 1.586-.867 2.768 0 1.253.287 2.15.86 2.693.574.543 1.243.814 2.008.814.55 0 .99-.088 1.325-.263.334-.176.62-.444.857-.805.013.972-.064 1.646-.23 2.024-.282.642-.878.963-1.787.963-.576 0-.998-.132-1.266-.396-.171-.171-.286-.415-.343-.732h-1.206c.062.725.352 1.258.87 1.599.519.34 1.158.51 1.918.51zm0-3.87c-.546 0-.98-.207-1.303-.623-.323-.415-.484-1.02-.484-1.816 0-.676.081-1.224.244-1.641.307-.782.879-1.173 1.714-1.173.558 0 1.017.21 1.377.632.36.422.541 1.07.541 1.945 0 .58-.097 1.088-.29 1.523-.347.769-.947 1.153-1.8 1.153z" fill="#333"/><path d="M47.826 69.068c.33-.316.447-.78.305-1.21a1.192 1.192 0 00-.974-.803l-4.07-.58a.53.53 0 01-.4-.284l-1.82-3.61a1.2 1.2 0 00-1.08-.659 1.2 1.2 0 00-1.081.658l-1.82 3.61a.531.531 0 01-.4.286l-4.07.579a1.192 1.192 0 00-.974.803c-.143.431-.026.894.305 1.21l2.944 2.81c.126.12.184.293.154.462l-.695 3.968c-.061.35.032.69.263.957.359.418.985.545 1.486.287l3.64-1.874a.555.555 0 01.495 0l3.64 1.874a1.213 1.213 0 001.486-.287 1.14 1.14 0 00.263-.957l-.695-3.968a.515.515 0 01.153-.462l2.945-2.81zm19.774 0c.331-.316.448-.78.305-1.21a1.192 1.192 0 00-.973-.803l-4.07-.58a.53.53 0 01-.4-.284l-1.82-3.61a1.2 1.2 0 00-1.08-.659 1.2 1.2 0 00-1.082.658l-1.82 3.61a.531.531 0 01-.4.286l-4.07.579c-.457.065-.83.373-.973.803-.143.431-.026.894.305 1.21l2.944 2.81c.126.12.183.293.154.462l-.695 3.968c-.062.35.032.69.263.957.359.418.985.545 1.486.287l3.64-1.874a.555.555 0 01.495 0l3.64 1.874a1.213 1.213 0 001.485-.287c.232-.268.325-.608.263-.957l-.695-3.968a.515.515 0 01.154-.462l2.944-2.81zm19.775 0c.331-.316.448-.78.305-1.21a1.192 1.192 0 00-.973-.803l-4.07-.58a.53.53 0 01-.4-.284l-1.82-3.61a1.2 1.2 0 00-1.081-.659 1.2 1.2 0 00-1.08.658l-1.82 3.61a.531.531 0 01-.402.286l-4.07.579c-.457.065-.83.373-.973.803-.142.431-.026.894.305 1.21l2.945 2.81c.125.12.183.293.153.462l-.694 3.968c-.062.35.032.69.263.957.358.418.985.545 1.485.287l3.64-1.874a.555.555 0 01.496 0l3.64 1.874a1.213 1.213 0 001.485-.287c.231-.268.325-.608.263-.957l-.695-3.968a.515.515 0 01.154-.462l2.944-2.81zm19.775 0c.33-.316.447-.78.305-1.21a1.192 1.192 0 00-.974-.803l-4.07-.58a.53.53 0 01-.4-.284l-1.82-3.61a1.2 1.2 0 00-1.08-.659 1.2 1.2 0 00-1.081.658l-1.82 3.61a.531.531 0 01-.4.286l-4.07.579a1.192 1.192 0 00-.974.803c-.143.431-.026.894.305 1.21l2.945 2.81c.125.12.183.293.153.462l-.695 3.968c-.061.35.032.69.263.957.359.418.985.545 1.486.287l3.64-1.874a.555.555 0 01.495 0l3.64 1.874a1.213 1.213 0 001.486-.287 1.14 1.14 0 00.263-.957l-.695-3.968a.515.515 0 01.153-.462l2.945-2.81zm19.775 0c.33-.316.447-.78.304-1.21a1.192 1.192 0 00-.973-.803l-4.07-.58a.53.53 0 01-.4-.284l-1.82-3.61a1.2 1.2 0 00-1.08-.659 1.2 1.2 0 00-1.081.658l-1.82 3.61a.531.531 0 01-.401.286l-4.07.579c-.457.065-.83.373-.973.803-.143.431-.026.894.305 1.21l2.944 2.81c.126.12.183.293.154.462l-.695 3.968c-.062.35.032.69.263.957.359.418.985.545 1.486.287l3.64-1.874a.555.555 0 01.495 0l3.64 1.874a1.213 1.213 0 001.486-.287 1.14 1.14 0 00.262-.957l-.695-3.968a.515.515 0 01.154-.462l2.945-2.81z" fill="#FDBB00"/></g><g transform="translate(15.614 .983)"><mask id="b" fill="#fff"><use xlink:href="#a"/></mask><path d="M19.123 13.516v3.957h9.74c-.298 2.22-1.06 3.844-2.22 4.986-1.424 1.383-3.644 2.895-7.52 2.895-5.996 0-10.684-4.697-10.684-10.518 0-5.823 4.688-10.518 10.684-10.518 3.23 0 5.6 1.238 7.338 2.83l2.866-2.783C26.909 2.082 23.662.345 19.123.345 10.907.345 4 6.842 4 14.819c0 7.978 6.907 14.475 15.123 14.475 4.44 0 7.786-1.416 10.403-4.053 2.683-2.605 3.528-6.288 3.528-9.248 0-.916-.066-1.769-.216-2.477H19.123" fill="#3D83F7" mask="url(#b)"/></g><path d="M60.312 26.596c-2.812 0-5.241-2.453-5.241-5.955 0-3.536 2.429-5.955 5.241-5.955 2.813 0 5.242 2.419 5.242 5.955 0 3.502-2.43 5.955-5.242 5.955zm0-15.784c-5.13 0-9.316 4.128-9.316 9.829 0 5.65 4.187 9.829 9.316 9.829 5.13 0 9.317-4.162 9.317-9.83 0-5.7-4.187-9.828-9.317-9.828z" fill="#ED412D"/><path d="M102.233 26.096c-2.825 0-4.975-2.458-4.975-5.766 0-3.359 2.15-5.767 4.975-5.767 2.792 0 4.974 2.458 4.974 5.8.016 3.325-2.182 5.733-4.974 5.733zm4.701-13.155h-.144c-.915-1.114-2.68-2.13-4.91-2.13-4.654 0-8.714 4.145-8.714 9.519 0 5.34 4.06 9.517 8.714 9.517 2.23 0 3.995-1.015 4.91-2.162h.144v1.327c0 3.636-1.91 5.586-4.974 5.586-2.504 0-4.06-1.835-4.702-3.391l-3.563 1.507c1.027 2.523 3.739 5.619 8.265 5.619 4.798 0 8.858-2.883 8.858-9.911V11.303h-3.884v1.638z" fill="#3D83F7"/><path d="M81.888 26.596c-2.813 0-5.242-2.453-5.242-5.955 0-3.536 2.429-5.955 5.242-5.955 2.812 0 5.241 2.419 5.241 5.955 0 3.502-2.429 5.955-5.241 5.955zm0-15.784c-5.13 0-9.317 4.128-9.317 9.829 0 5.65 4.187 9.829 9.317 9.829s9.316-4.162 9.316-9.83c0-5.7-4.187-9.828-9.316-9.828z" fill="#FDBD00"/><path fill="#2DA94F" d="M113.76 29.487h2.942V.983h-2.942z"/><path d="M130.292 14.5c1.603 0 2.973.897 3.424 2.165l-8.172 3.671c0-4.128 2.693-5.836 4.748-5.836zm.28 12.096c-2.024 0-3.456-.998-4.39-2.978l12.095-5.43-.404-1.117c-.748-2.199-3.051-6.26-7.737-6.26-4.655 0-8.53 3.976-8.53 9.83 0 5.515 3.829 9.829 8.966 9.829 4.14 0 6.538-2.758 7.534-4.348l-3.082-2.233c-1.027 1.624-2.429 2.707-4.452 2.707z" fill="#ED412D"/></g></svg>